<mxfile host="app.diagrams.net" modified="2023-08-01T06:10:32.510Z" agent="Mozilla/5.0 (Windows NT 10.0; Win64; x64) AppleWebKit/537.36 (KHTML, like Gecko) Chrome/115.0.0.0 Safari/537.36" version="21.6.5" etag="L30Vy2KEcLmRvvwA6k8S" type="github">
  <diagram name="第 1 页" id="2IsAd4zUsnXnslO65fH5">
    <mxGraphModel>
      <root>
        <mxCell id="0" />
        <mxCell id="1" parent="0" />
      </root>
    </mxGraphModel>
  </diagram>
</mxfile>
